<?xml version="1.0" encoding="UTF-8"?>
<svg xmlns="http://www.w3.org/2000/svg" xmlns:xlink="http://www.w3.org/1999/xlink" viewBox="0 0 480 480" width="480px" height="480px">
<g id="surface101238196">
<path style=" stroke:none;fill-rule:nonzero;fill:rgb(0%,0%,0%);fill-opacity:1;" d="M 246.914062 40 C 166.21875 38.46875 86.277344 84.429688 53.203125 171.40625 C 90.601562 145.207031 126.40625 139.386719 153.007812 140.585938 C 212.609375 142.785156 264.609375 179.1875 288.007812 212.1875 C 294.609375 222.585938 298.414062 237.394531 292.8125 253.59375 C 289.011719 265.394531 284.011719 266.992188 282.8125 268.59375 C 281.8125 269.992188 275.402344 276.792969 286.601562 283.59375 C 297.601562 290.59375 309.589844 297.390625 333.789062 298.789062 C 357.988281 299.988281 387.015625 301.40625 416.015625 274.804688 C 445.617188 247.804688 441.613281 199.808594 432.8125 174.609375 C 423.8125 149.410156 386.007812 63.59375 281.40625 43.59375 C 269.980469 41.417969 258.441406 40.21875 246.914062 40 Z M 151.601562 180.585938 C 111 179.1875 73.796875 198.191406 40.195312 236.992188 C 38.796875 312.792969 84.183594 381.796875 143.984375 415.195312 C 155.183594 421.394531 170.402344 427.78125 188.203125 432.382812 C 159.804688 408.78125 147.804688 382.992188 143.203125 361.992188 C 130.203125 302.992188 164.609375 244.914062 201.210938 210.3125 C 204.410156 206.113281 208.8125 201.59375 212.8125 198.59375 C 195.613281 188.792969 174.601562 181.386719 151.601562 180.585938 Z M 198.59375 276.601562 C 184.792969 299.601562 176.386719 326.804688 182.1875 353.203125 C 189.988281 388.601562 223.390625 417.210938 278.789062 436.210938 C 320.1875 428.609375 364.210938 406.382812 402.8125 358.984375 C 407.011719 352.984375 409.980469 347.804688 405.78125 343.203125 C 401.582031 338.601562 400.398438 339.007812 378.398438 348.007812 C 356.398438 357.007812 315.183594 358.203125 287.382812 349.804688 C 260.382812 341.804688 221.195312 328.203125 198.59375 276.601562 Z M 198.59375 276.601562 "/>
</g>
</svg>
